<svg id="visual" viewBox="0 0 900 600" width="900" height="600" xmlns="http://www.w3.org/2000/svg" xmlns:xlink="http://www.w3.org/1999/xlink" version="1.1"><rect x="0" y="0" width="900" height="600" fill="#002233"></rect><path d="M0 344L30 336.2C60 328.3 120 312.7 180 324.5C240 336.3 300 375.7 360 385.5C420 395.3 480 375.7 540 365.2C600 354.7 660 353.3 720 362.8C780 372.3 840 392.7 870 402.8L900 413L900 601L870 601C840 601 780 601 720 601C660 601 600 601 540 601C480 601 420 601 360 601C300 601 240 601 180 601C120 601 60 601 30 601L0 601Z" fill="#F7770F" stroke-linecap="round" stroke-linejoin="miter"></path></svg>