<svg id="visual" viewBox="0 0 900 600" width="900" height="600" xmlns="http://www.w3.org/2000/svg" xmlns:xlink="http://www.w3.org/1999/xlink" version="1.1"><path d="M0 423L21.5 420C43 417 86 411 128.8 423.3C171.7 435.7 214.3 466.3 257.2 470.3C300 474.3 343 451.7 385.8 449.7C428.7 447.7 471.3 466.3 514.2 464.5C557 462.7 600 440.3 642.8 424.3C685.7 408.3 728.3 398.7 771.2 411.3C814 424 857 459 878.5 476.5L900 494L900 601L878.5 601C857 601 814 601 771.2 601C728.3 601 685.7 601 642.8 601C600 601 557 601 514.2 601C471.3 601 428.7 601 385.8 601C343 601 300 601 257.2 601C214.3 601 171.7 601 128.8 601C86 601 43 601 21.5 601L0 601Z" fill="#ff9f33" stroke-linecap="round" stroke-linejoin="miter"></path></svg>